<svg xmlns="http://www.w3.org/2000/svg">
  <!-- Selected icons vendored from Lucide (ISC), normalized to a 24px outline grid. -->
  <symbol id="activity" viewBox="0 0 24 24"><path d="M22 12h-4l-3 9L9 3l-3 9H2"/></symbol>
  <symbol id="arrow-right" viewBox="0 0 24 24"><path d="M5 12h14"/><path d="m13 6 6 6-6 6"/></symbol>
  <symbol id="check" viewBox="0 0 24 24"><path d="m20 6-11 11-5-5"/></symbol>
  <symbol id="chevron-left" viewBox="0 0 24 24"><path d="m15 18-6-6 6-6"/></symbol>
  <symbol id="chevron-right" viewBox="0 0 24 24"><path d="m9 18 6-6-6-6"/></symbol>
  <symbol id="download" viewBox="0 0 24 24"><path d="M21 15v4a2 2 0 0 1-2 2H5a2 2 0 0 1-2-2v-4"/><path d="m7 10 5 5 5-5"/><path d="M12 15V3"/></symbol>
  <symbol id="external-link" viewBox="0 0 24 24"><path d="M15 3h6v6"/><path d="M10 14 21 3"/><path d="M18 13v6a2 2 0 0 1-2 2H5a2 2 0 0 1-2-2V8a2 2 0 0 1 2-2h6"/></symbol>
  <symbol id="file-text" viewBox="0 0 24 24"><path d="M14.5 2H6a2 2 0 0 0-2 2v16a2 2 0 0 0 2 2h12a2 2 0 0 0 2-2V7.5z"/><path d="M14 2v6h6"/><path d="M8 13h8"/><path d="M8 17h8"/><path d="M8 9h2"/></symbol>
  <symbol id="folder" viewBox="0 0 24 24"><path d="M20 20a2 2 0 0 0 2-2V8a2 2 0 0 0-2-2h-7.9a2 2 0 0 1-1.7-.9l-.8-1.2A2 2 0 0 0 7.9 3H4a2 2 0 0 0-2 2v13a2 2 0 0 0 2 2z"/></symbol>
  <symbol id="grid" viewBox="0 0 24 24"><rect width="7" height="7" x="3" y="3" rx="1"/><rect width="7" height="7" x="14" y="3" rx="1"/><rect width="7" height="7" x="14" y="14" rx="1"/><rect width="7" height="7" x="3" y="14" rx="1"/></symbol>
  <symbol id="layout-list" viewBox="0 0 24 24"><rect width="7" height="7" x="3" y="3" rx="1"/><rect width="7" height="7" x="3" y="14" rx="1"/><path d="M14 4h7"/><path d="M14 9h7"/><path d="M14 15h7"/><path d="M14 20h7"/></symbol>
  <symbol id="panel-top" viewBox="0 0 24 24"><rect width="18" height="18" x="3" y="3" rx="2"/><path d="M3 9h18"/></symbol>
  <symbol id="plus" viewBox="0 0 24 24"><path d="M5 12h14"/><path d="M12 5v14"/></symbol>
  <symbol id="search" viewBox="0 0 24 24"><circle cx="11" cy="11" r="8"/><path d="m21 21-4.3-4.3"/></symbol>
  <symbol id="sparkles" viewBox="0 0 24 24"><path d="m12 3-1.9 4.7a2 2 0 0 1-1.1 1.1L4.3 10.7 9 12.6a2 2 0 0 1 1.1 1.1L12 18.4l1.9-4.7a2 2 0 0 1 1.1-1.1l4.7-1.9L15 8.8a2 2 0 0 1-1.1-1.1z"/><path d="M5 3v4"/><path d="M3 5h4"/><path d="M19 17v4"/><path d="M17 19h4"/></symbol>
  <symbol id="trash" viewBox="0 0 24 24"><path d="M3 6h18"/><path d="M8 6V4a2 2 0 0 1 2-2h4a2 2 0 0 1 2 2v2"/><path d="M19 6 18 20a2 2 0 0 1-2 2H8a2 2 0 0 1-2-2L5 6"/><path d="M10 11v6"/><path d="M14 11v6"/></symbol>
  <symbol id="upload" viewBox="0 0 24 24"><path d="M21 15v4a2 2 0 0 1-2 2H5a2 2 0 0 1-2-2v-4"/><path d="m17 8-5-5-5 5"/><path d="M12 3v12"/></symbol>
</svg>
